<mxfile host="app.diagrams.net" modified="2023-01-18T03:02:21.265Z" agent="5.0 (Windows NT 10.0; Win64; x64) AppleWebKit/537.36 (KHTML, like Gecko) Chrome/108.0.0.0 Safari/537.36" etag="3wNoPjDl2_FzVEdKxlvL" version="20.8.1" type="github">
  <diagram id="C5RBs43oDa-KdzZeNtuy" name="Page-1">
    <mxGraphModel dx="1043" dy="619" grid="1" gridSize="10" guides="1" tooltips="1" connect="1" arrows="1" fold="1" page="1" pageScale="1" pageWidth="827" pageHeight="1169" math="0" shadow="0">
      <root>
        <mxCell id="WIyWlLk6GJQsqaUBKTNV-0" />
        <mxCell id="WIyWlLk6GJQsqaUBKTNV-1" parent="WIyWlLk6GJQsqaUBKTNV-0" />
        <mxCell id="9PTyURIz3iImR1XXdqux-123" value="" style="triangle;whiteSpace=wrap;html=1;fontSize=9;opacity=50;spacingLeft=0;direction=south;spacingBottom=9;" vertex="1" parent="WIyWlLk6GJQsqaUBKTNV-1">
          <mxGeometry x="696" y="150" width="66" height="26" as="geometry" />
        </mxCell>
        <mxCell id="9PTyURIz3iImR1XXdqux-106" value="" style="ellipse;whiteSpace=wrap;html=1;aspect=fixed;fontSize=9;opacity=50;textOpacity=50;" vertex="1" parent="WIyWlLk6GJQsqaUBKTNV-1">
          <mxGeometry x="663" y="271" width="49" height="49" as="geometry" />
        </mxCell>
        <mxCell id="9PTyURIz3iImR1XXdqux-3" value="" style="rounded=0;whiteSpace=wrap;html=1;fillColor=#999999;fontColor=#333333;strokeColor=#666666;" vertex="1" parent="WIyWlLk6GJQsqaUBKTNV-1">
          <mxGeometry x="90" y="126.31" width="550" height="373.69" as="geometry" />
        </mxCell>
        <mxCell id="9PTyURIz3iImR1XXdqux-9" value="AD9361" style="rounded=0;whiteSpace=wrap;html=1;fontSize=16;" vertex="1" parent="WIyWlLk6GJQsqaUBKTNV-1">
          <mxGeometry x="389" y="232.70000000000002" width="171" height="160.92" as="geometry" />
        </mxCell>
        <mxCell id="9PTyURIz3iImR1XXdqux-137" value="" style="endArrow=none;startArrow=classicThin;html=1;rounded=0;fontSize=11;startFill=1;endFill=0;opacity=40;" edge="1" parent="WIyWlLk6GJQsqaUBKTNV-1">
          <mxGeometry width="50" height="50" relative="1" as="geometry">
            <mxPoint x="391" y="349" as="sourcePoint" />
            <mxPoint x="415.88" y="348.8" as="targetPoint" />
          </mxGeometry>
        </mxCell>
        <mxCell id="9PTyURIz3iImR1XXdqux-111" value="" style="triangle;whiteSpace=wrap;html=1;fontSize=9;fillColor=#999999;opacity=40;spacingLeft=6;direction=west;textOpacity=50;" vertex="1" parent="WIyWlLk6GJQsqaUBKTNV-1">
          <mxGeometry x="505" y="333.99999999999994" width="30" height="30" as="geometry" />
        </mxCell>
        <mxCell id="9PTyURIz3iImR1XXdqux-113" value="" style="shape=sumEllipse;perimeter=ellipsePerimeter;whiteSpace=wrap;html=1;backgroundOutline=1;fontSize=9;fillColor=#999999;opacity=40;textOpacity=50;" vertex="1" parent="WIyWlLk6GJQsqaUBKTNV-1">
          <mxGeometry x="465.5" y="339" width="20" height="20" as="geometry" />
        </mxCell>
        <mxCell id="9PTyURIz3iImR1XXdqux-116" value="" style="shape=offPageConnector;whiteSpace=wrap;html=1;fontSize=9;fillColor=#999999;opacity=40;direction=south;size=0.3333333333333333;spacingLeft=4;textOpacity=50;" vertex="1" parent="WIyWlLk6GJQsqaUBKTNV-1">
          <mxGeometry x="410" y="339.92" width="30" height="18.16" as="geometry" />
        </mxCell>
        <mxCell id="9PTyURIz3iImR1XXdqux-118" value="" style="shape=offPageConnector;whiteSpace=wrap;html=1;fontSize=9;fillColor=#999999;opacity=50;direction=north;size=0.3333333333333333;spacingLeft=-5;textOpacity=50;" vertex="1" parent="WIyWlLk6GJQsqaUBKTNV-1">
          <mxGeometry x="414.88" y="279" width="30" height="18.16" as="geometry" />
        </mxCell>
        <mxCell id="9PTyURIz3iImR1XXdqux-115" value="" style="shape=sumEllipse;perimeter=ellipsePerimeter;whiteSpace=wrap;html=1;backgroundOutline=1;fontSize=9;fillColor=#999999;opacity=50;textOpacity=50;" vertex="1" parent="WIyWlLk6GJQsqaUBKTNV-1">
          <mxGeometry x="465.5" y="278.15999999999997" width="20" height="20" as="geometry" />
        </mxCell>
        <mxCell id="9PTyURIz3iImR1XXdqux-108" value="" style="triangle;whiteSpace=wrap;html=1;fontSize=9;fillColor=#999999;opacity=40;spacingLeft=-9;textOpacity=50;" vertex="1" parent="WIyWlLk6GJQsqaUBKTNV-1">
          <mxGeometry x="505" y="273.16" width="30" height="30" as="geometry" />
        </mxCell>
        <mxCell id="9PTyURIz3iImR1XXdqux-10" value="ZYNQ" style="rounded=0;whiteSpace=wrap;html=1;fontSize=16;" vertex="1" parent="WIyWlLk6GJQsqaUBKTNV-1">
          <mxGeometry x="200" y="256.58" width="119.75" height="113.15" as="geometry" />
        </mxCell>
        <mxCell id="9PTyURIz3iImR1XXdqux-63" style="edgeStyle=orthogonalEdgeStyle;rounded=0;orthogonalLoop=1;jettySize=auto;html=1;exitX=0;exitY=0.5;exitDx=0;exitDy=0;entryX=1;entryY=0.5;entryDx=0;entryDy=0;fontSize=15;startArrow=classic;startFill=1;endArrow=classic;endFill=1;" edge="1" parent="WIyWlLk6GJQsqaUBKTNV-1" source="9PTyURIz3iImR1XXdqux-11" target="9PTyURIz3iImR1XXdqux-62">
          <mxGeometry relative="1" as="geometry" />
        </mxCell>
        <mxCell id="9PTyURIz3iImR1XXdqux-64" style="edgeStyle=orthogonalEdgeStyle;rounded=0;orthogonalLoop=1;jettySize=auto;html=1;exitX=1;exitY=0.5;exitDx=0;exitDy=0;entryX=0;entryY=0.5;entryDx=0;entryDy=0;fontSize=15;startArrow=classic;startFill=1;endArrow=classic;endFill=1;" edge="1" parent="WIyWlLk6GJQsqaUBKTNV-1" source="9PTyURIz3iImR1XXdqux-11" target="9PTyURIz3iImR1XXdqux-10">
          <mxGeometry relative="1" as="geometry" />
        </mxCell>
        <mxCell id="9PTyURIz3iImR1XXdqux-11" value="USB 2.0&lt;br style=&quot;font-size: 11px;&quot;&gt;Phy" style="rounded=0;whiteSpace=wrap;html=1;fontSize=11;" vertex="1" parent="WIyWlLk6GJQsqaUBKTNV-1">
          <mxGeometry x="110.25" y="293.15999999999997" width="40" height="40" as="geometry" />
        </mxCell>
        <mxCell id="9PTyURIz3iImR1XXdqux-18" value="" style="endArrow=classic;html=1;rounded=0;fontSize=16;entryX=0.5;entryY=0;entryDx=0;entryDy=0;exitX=0.5;exitY=1;exitDx=0;exitDy=0;" edge="1" parent="WIyWlLk6GJQsqaUBKTNV-1" source="9PTyURIz3iImR1XXdqux-19" target="9PTyURIz3iImR1XXdqux-9">
          <mxGeometry width="50" height="50" relative="1" as="geometry">
            <mxPoint x="355" y="90" as="sourcePoint" />
            <mxPoint x="355" y="140" as="targetPoint" />
          </mxGeometry>
        </mxCell>
        <mxCell id="9PTyURIz3iImR1XXdqux-19" value="Signal Generator" style="rounded=0;whiteSpace=wrap;html=1;fontSize=15;fillColor=#f5f5f5;strokeColor=#666666;fontColor=#333333;" vertex="1" parent="WIyWlLk6GJQsqaUBKTNV-1">
          <mxGeometry x="434.88" y="20" width="79.25" height="50" as="geometry" />
        </mxCell>
        <mxCell id="9PTyURIz3iImR1XXdqux-20" value="&lt;font style=&quot;font-size: 8px;&quot;&gt;ext_clk&lt;br&gt;&lt;/font&gt;" style="text;html=1;strokeColor=none;fillColor=none;align=center;verticalAlign=middle;whiteSpace=wrap;rounded=0;fontSize=1;rotation=90;" vertex="1" parent="WIyWlLk6GJQsqaUBKTNV-1">
          <mxGeometry x="460" y="90" width="45.5" height="15" as="geometry" />
        </mxCell>
        <mxCell id="9PTyURIz3iImR1XXdqux-62" value="HOST" style="text;html=1;strokeColor=none;fillColor=none;align=center;verticalAlign=middle;whiteSpace=wrap;rounded=0;fontSize=15;opacity=80;" vertex="1" parent="WIyWlLk6GJQsqaUBKTNV-1">
          <mxGeometry x="10" y="298.15999999999997" width="60" height="30" as="geometry" />
        </mxCell>
        <mxCell id="9PTyURIz3iImR1XXdqux-66" value="" style="endArrow=classic;startArrow=none;html=1;rounded=0;fontSize=11;startFill=0;entryX=0.5;entryY=0;entryDx=0;entryDy=0;" edge="1" parent="WIyWlLk6GJQsqaUBKTNV-1" target="9PTyURIz3iImR1XXdqux-84">
          <mxGeometry width="50" height="50" relative="1" as="geometry">
            <mxPoint x="390" y="283" as="sourcePoint" />
            <mxPoint x="390" y="283" as="targetPoint" />
          </mxGeometry>
        </mxCell>
        <mxCell id="9PTyURIz3iImR1XXdqux-67" value="" style="endArrow=none;startArrow=classic;html=1;rounded=0;fontSize=11;endFill=0;entryX=0.5;entryY=1;entryDx=0;entryDy=0;" edge="1" parent="WIyWlLk6GJQsqaUBKTNV-1" target="9PTyURIz3iImR1XXdqux-83">
          <mxGeometry width="50" height="50" relative="1" as="geometry">
            <mxPoint x="390" y="344" as="sourcePoint" />
            <mxPoint x="389" y="344" as="targetPoint" />
          </mxGeometry>
        </mxCell>
        <mxCell id="9PTyURIz3iImR1XXdqux-69" value="" style="edgeStyle=orthogonalEdgeStyle;rounded=0;orthogonalLoop=1;jettySize=auto;html=1;fontSize=11;startArrow=classic;startFill=1;endArrow=classic;endFill=1;" edge="1" parent="WIyWlLk6GJQsqaUBKTNV-1" source="9PTyURIz3iImR1XXdqux-68" target="9PTyURIz3iImR1XXdqux-10">
          <mxGeometry relative="1" as="geometry" />
        </mxCell>
        <mxCell id="9PTyURIz3iImR1XXdqux-68" value="DDR3L" style="rounded=0;whiteSpace=wrap;html=1;fontSize=11;opacity=80;" vertex="1" parent="WIyWlLk6GJQsqaUBKTNV-1">
          <mxGeometry x="234.88" y="170" width="50" height="50" as="geometry" />
        </mxCell>
        <mxCell id="9PTyURIz3iImR1XXdqux-71" value="" style="edgeStyle=orthogonalEdgeStyle;rounded=0;orthogonalLoop=1;jettySize=auto;html=1;fontSize=11;startArrow=classic;startFill=1;endArrow=classic;endFill=1;" edge="1" parent="WIyWlLk6GJQsqaUBKTNV-1" source="9PTyURIz3iImR1XXdqux-70" target="9PTyURIz3iImR1XXdqux-10">
          <mxGeometry relative="1" as="geometry" />
        </mxCell>
        <mxCell id="9PTyURIz3iImR1XXdqux-70" value="Flash Micron SPI Flast MT25QU256" style="rounded=0;whiteSpace=wrap;html=1;fontSize=11;opacity=80;" vertex="1" parent="WIyWlLk6GJQsqaUBKTNV-1">
          <mxGeometry x="227.44" y="410" width="64.88" height="60" as="geometry" />
        </mxCell>
        <mxCell id="9PTyURIz3iImR1XXdqux-93" style="edgeStyle=orthogonalEdgeStyle;rounded=0;orthogonalLoop=1;jettySize=auto;html=1;exitX=1;exitY=0.5;exitDx=0;exitDy=0;labelBackgroundColor=none;fontSize=9;startArrow=none;startFill=0;endArrow=classicThin;endFill=1;" edge="1" parent="WIyWlLk6GJQsqaUBKTNV-1" source="9PTyURIz3iImR1XXdqux-77">
          <mxGeometry relative="1" as="geometry">
            <mxPoint x="590" y="283" as="targetPoint" />
          </mxGeometry>
        </mxCell>
        <mxCell id="9PTyURIz3iImR1XXdqux-77" value="PA" style="triangle;whiteSpace=wrap;html=1;fontSize=9;fillColor=#999999;opacity=80;spacingLeft=-9;" vertex="1" parent="WIyWlLk6GJQsqaUBKTNV-1">
          <mxGeometry x="503" y="268.16" width="30" height="30" as="geometry" />
        </mxCell>
        <mxCell id="9PTyURIz3iImR1XXdqux-82" style="edgeStyle=orthogonalEdgeStyle;rounded=0;orthogonalLoop=1;jettySize=auto;html=1;exitX=1;exitY=0.5;exitDx=0;exitDy=0;entryX=1;entryY=0.5;entryDx=0;entryDy=0;labelBackgroundColor=none;fontSize=9;startArrow=none;startFill=0;endArrow=classicThin;endFill=1;" edge="1" parent="WIyWlLk6GJQsqaUBKTNV-1" source="9PTyURIz3iImR1XXdqux-78" target="9PTyURIz3iImR1XXdqux-79">
          <mxGeometry relative="1" as="geometry" />
        </mxCell>
        <mxCell id="9PTyURIz3iImR1XXdqux-110" style="edgeStyle=orthogonalEdgeStyle;rounded=0;orthogonalLoop=1;jettySize=auto;html=1;exitX=0;exitY=0.5;exitDx=0;exitDy=0;labelBackgroundColor=none;fontSize=9;startArrow=classicThin;startFill=1;endArrow=oval;endFill=0;opacity=40;textOpacity=50;" edge="1" parent="WIyWlLk6GJQsqaUBKTNV-1" source="9PTyURIz3iImR1XXdqux-111">
          <mxGeometry relative="1" as="geometry">
            <mxPoint x="672" y="302.5" as="targetPoint" />
            <Array as="points">
              <mxPoint x="652" y="349" />
              <mxPoint x="652" y="303" />
            </Array>
          </mxGeometry>
        </mxCell>
        <mxCell id="9PTyURIz3iImR1XXdqux-119" value="" style="endArrow=none;html=1;rounded=0;labelBackgroundColor=none;fontSize=9;startArrow=oval;startFill=0;opacity=40;textOpacity=50;" edge="1" parent="WIyWlLk6GJQsqaUBKTNV-1">
          <mxGeometry width="50" height="50" relative="1" as="geometry">
            <mxPoint x="672" y="287.94000000000005" as="sourcePoint" />
            <mxPoint x="590" y="288" as="targetPoint" />
          </mxGeometry>
        </mxCell>
        <mxCell id="9PTyURIz3iImR1XXdqux-91" value="" style="ellipse;whiteSpace=wrap;html=1;aspect=fixed;fontSize=9;" vertex="1" parent="WIyWlLk6GJQsqaUBKTNV-1">
          <mxGeometry x="661" y="266" width="49" height="49" as="geometry" />
        </mxCell>
        <mxCell id="9PTyURIz3iImR1XXdqux-86" style="edgeStyle=orthogonalEdgeStyle;rounded=0;orthogonalLoop=1;jettySize=auto;html=1;exitX=0;exitY=0.5;exitDx=0;exitDy=0;entryX=0.5;entryY=0;entryDx=0;entryDy=0;labelBackgroundColor=none;fontSize=9;startArrow=none;startFill=0;endArrow=classicThin;endFill=1;" edge="1" parent="WIyWlLk6GJQsqaUBKTNV-1" source="9PTyURIz3iImR1XXdqux-79" target="9PTyURIz3iImR1XXdqux-83">
          <mxGeometry relative="1" as="geometry" />
        </mxCell>
        <mxCell id="9PTyURIz3iImR1XXdqux-79" value="" style="shape=sumEllipse;perimeter=ellipsePerimeter;whiteSpace=wrap;html=1;backgroundOutline=1;fontSize=9;fillColor=#999999;opacity=90;" vertex="1" parent="WIyWlLk6GJQsqaUBKTNV-1">
          <mxGeometry x="463.5" y="334" width="20" height="20" as="geometry" />
        </mxCell>
        <mxCell id="9PTyURIz3iImR1XXdqux-81" value="" style="edgeStyle=orthogonalEdgeStyle;rounded=0;orthogonalLoop=1;jettySize=auto;html=1;labelBackgroundColor=none;fontSize=9;startArrow=none;startFill=0;endArrow=classicThin;endFill=1;" edge="1" parent="WIyWlLk6GJQsqaUBKTNV-1" source="9PTyURIz3iImR1XXdqux-80" target="9PTyURIz3iImR1XXdqux-77">
          <mxGeometry relative="1" as="geometry" />
        </mxCell>
        <mxCell id="9PTyURIz3iImR1XXdqux-80" value="" style="shape=sumEllipse;perimeter=ellipsePerimeter;whiteSpace=wrap;html=1;backgroundOutline=1;fontSize=9;fillColor=#999999;opacity=80;" vertex="1" parent="WIyWlLk6GJQsqaUBKTNV-1">
          <mxGeometry x="463.5" y="273.15999999999997" width="20" height="20" as="geometry" />
        </mxCell>
        <mxCell id="9PTyURIz3iImR1XXdqux-83" value="ADC" style="shape=offPageConnector;whiteSpace=wrap;html=1;fontSize=9;fillColor=#999999;opacity=90;direction=south;size=0.3333333333333333;spacingLeft=4;" vertex="1" parent="WIyWlLk6GJQsqaUBKTNV-1">
          <mxGeometry x="408" y="334.92" width="30" height="18.16" as="geometry" />
        </mxCell>
        <mxCell id="9PTyURIz3iImR1XXdqux-85" style="edgeStyle=orthogonalEdgeStyle;rounded=0;orthogonalLoop=1;jettySize=auto;html=1;exitX=0.5;exitY=1;exitDx=0;exitDy=0;entryX=0;entryY=0.5;entryDx=0;entryDy=0;labelBackgroundColor=none;fontSize=9;startArrow=none;startFill=0;endArrow=classicThin;endFill=1;" edge="1" parent="WIyWlLk6GJQsqaUBKTNV-1" source="9PTyURIz3iImR1XXdqux-84" target="9PTyURIz3iImR1XXdqux-80">
          <mxGeometry relative="1" as="geometry" />
        </mxCell>
        <mxCell id="9PTyURIz3iImR1XXdqux-84" value="DAC" style="shape=offPageConnector;whiteSpace=wrap;html=1;fontSize=9;fillColor=#999999;opacity=80;direction=north;size=0.3333333333333333;spacingLeft=-5;" vertex="1" parent="WIyWlLk6GJQsqaUBKTNV-1">
          <mxGeometry x="412.88" y="274" width="30" height="18.16" as="geometry" />
        </mxCell>
        <mxCell id="9PTyURIz3iImR1XXdqux-87" value="Antenna" style="triangle;whiteSpace=wrap;html=1;fontSize=9;opacity=80;spacingLeft=0;direction=south;spacingBottom=9;" vertex="1" parent="WIyWlLk6GJQsqaUBKTNV-1">
          <mxGeometry x="685" y="140" width="70" height="30" as="geometry" />
        </mxCell>
        <mxCell id="9PTyURIz3iImR1XXdqux-96" value="" style="endArrow=none;html=1;rounded=0;labelBackgroundColor=none;fontSize=9;startArrow=oval;startFill=0;" edge="1" parent="WIyWlLk6GJQsqaUBKTNV-1">
          <mxGeometry width="50" height="50" relative="1" as="geometry">
            <mxPoint x="670" y="282.94" as="sourcePoint" />
            <mxPoint x="580" y="282.96" as="targetPoint" />
          </mxGeometry>
        </mxCell>
        <mxCell id="9PTyURIz3iImR1XXdqux-100" value="" style="endArrow=none;dashed=1;html=1;dashPattern=1 3;strokeWidth=2;rounded=0;labelBackgroundColor=none;fontSize=9;" edge="1" parent="WIyWlLk6GJQsqaUBKTNV-1">
          <mxGeometry width="50" height="50" relative="1" as="geometry">
            <mxPoint x="676" y="296.63" as="sourcePoint" />
            <mxPoint x="700" y="290" as="targetPoint" />
          </mxGeometry>
        </mxCell>
        <mxCell id="9PTyURIz3iImR1XXdqux-101" value="" style="endArrow=none;html=1;rounded=0;labelBackgroundColor=none;fontSize=9;" edge="1" parent="WIyWlLk6GJQsqaUBKTNV-1">
          <mxGeometry width="50" height="50" relative="1" as="geometry">
            <mxPoint x="670" y="279" as="sourcePoint" />
            <mxPoint x="700" y="289" as="targetPoint" />
          </mxGeometry>
        </mxCell>
        <mxCell id="9PTyURIz3iImR1XXdqux-107" style="edgeStyle=orthogonalEdgeStyle;rounded=0;orthogonalLoop=1;jettySize=auto;html=1;exitX=1;exitY=0.5;exitDx=0;exitDy=0;labelBackgroundColor=none;fontSize=9;startArrow=none;startFill=0;endArrow=classicThin;endFill=1;opacity=40;textOpacity=50;" edge="1" parent="WIyWlLk6GJQsqaUBKTNV-1" source="9PTyURIz3iImR1XXdqux-108">
          <mxGeometry relative="1" as="geometry">
            <mxPoint x="592" y="288" as="targetPoint" />
          </mxGeometry>
        </mxCell>
        <mxCell id="9PTyURIz3iImR1XXdqux-114" value="" style="edgeStyle=orthogonalEdgeStyle;rounded=0;orthogonalLoop=1;jettySize=auto;html=1;labelBackgroundColor=none;fontSize=9;startArrow=none;startFill=0;endArrow=classicThin;endFill=1;opacity=40;textOpacity=50;" edge="1" parent="WIyWlLk6GJQsqaUBKTNV-1" source="9PTyURIz3iImR1XXdqux-115" target="9PTyURIz3iImR1XXdqux-108">
          <mxGeometry relative="1" as="geometry" />
        </mxCell>
        <mxCell id="9PTyURIz3iImR1XXdqux-109" style="edgeStyle=orthogonalEdgeStyle;rounded=0;orthogonalLoop=1;jettySize=auto;html=1;exitX=1;exitY=0.5;exitDx=0;exitDy=0;entryX=1;entryY=0.5;entryDx=0;entryDy=0;labelBackgroundColor=none;fontSize=9;startArrow=none;startFill=0;endArrow=classicThin;endFill=1;opacity=40;textOpacity=50;" edge="1" parent="WIyWlLk6GJQsqaUBKTNV-1" source="9PTyURIz3iImR1XXdqux-111" target="9PTyURIz3iImR1XXdqux-113">
          <mxGeometry relative="1" as="geometry" />
        </mxCell>
        <mxCell id="9PTyURIz3iImR1XXdqux-112" style="edgeStyle=orthogonalEdgeStyle;rounded=0;orthogonalLoop=1;jettySize=auto;html=1;exitX=0;exitY=0.5;exitDx=0;exitDy=0;entryX=0.5;entryY=0;entryDx=0;entryDy=0;labelBackgroundColor=none;fontSize=9;startArrow=none;startFill=0;endArrow=classicThin;endFill=1;opacity=40;textOpacity=50;" edge="1" parent="WIyWlLk6GJQsqaUBKTNV-1" source="9PTyURIz3iImR1XXdqux-113" target="9PTyURIz3iImR1XXdqux-116">
          <mxGeometry relative="1" as="geometry" />
        </mxCell>
        <mxCell id="9PTyURIz3iImR1XXdqux-117" style="edgeStyle=orthogonalEdgeStyle;rounded=0;orthogonalLoop=1;jettySize=auto;html=1;exitX=0.5;exitY=1;exitDx=0;exitDy=0;entryX=0;entryY=0.5;entryDx=0;entryDy=0;labelBackgroundColor=none;fontSize=9;startArrow=none;startFill=0;endArrow=classicThin;endFill=1;opacity=50;textOpacity=50;" edge="1" parent="WIyWlLk6GJQsqaUBKTNV-1" source="9PTyURIz3iImR1XXdqux-118" target="9PTyURIz3iImR1XXdqux-115">
          <mxGeometry relative="1" as="geometry" />
        </mxCell>
        <mxCell id="9PTyURIz3iImR1XXdqux-122" style="edgeStyle=orthogonalEdgeStyle;rounded=0;orthogonalLoop=1;jettySize=auto;html=1;entryX=1;entryY=0.5;entryDx=0;entryDy=0;labelBackgroundColor=none;fontSize=9;startArrow=none;startFill=0;endArrow=classicThin;endFill=1;opacity=50;" edge="1" parent="WIyWlLk6GJQsqaUBKTNV-1">
          <mxGeometry relative="1" as="geometry">
            <mxPoint x="712" y="296.16" as="sourcePoint" />
            <mxPoint x="728.9999999999999" y="176.16" as="targetPoint" />
            <Array as="points">
              <mxPoint x="729" y="296.16" />
            </Array>
          </mxGeometry>
        </mxCell>
        <mxCell id="9PTyURIz3iImR1XXdqux-95" style="edgeStyle=orthogonalEdgeStyle;rounded=0;orthogonalLoop=1;jettySize=auto;html=1;exitX=0;exitY=0.5;exitDx=0;exitDy=0;labelBackgroundColor=none;fontSize=9;startArrow=classicThin;startFill=1;endArrow=oval;endFill=0;" edge="1" parent="WIyWlLk6GJQsqaUBKTNV-1" source="9PTyURIz3iImR1XXdqux-78">
          <mxGeometry relative="1" as="geometry">
            <mxPoint x="670" y="297.5" as="targetPoint" />
            <Array as="points">
              <mxPoint x="650" y="344" />
              <mxPoint x="650" y="298" />
            </Array>
          </mxGeometry>
        </mxCell>
        <mxCell id="9PTyURIz3iImR1XXdqux-97" style="edgeStyle=orthogonalEdgeStyle;rounded=0;orthogonalLoop=1;jettySize=auto;html=1;entryX=1;entryY=0.5;entryDx=0;entryDy=0;labelBackgroundColor=none;fontSize=9;startArrow=oval;startFill=0;endArrow=classicThin;endFill=1;" edge="1" parent="WIyWlLk6GJQsqaUBKTNV-1">
          <mxGeometry relative="1" as="geometry">
            <mxPoint x="703" y="290" as="sourcePoint" />
            <mxPoint x="719.9999999999999" y="170" as="targetPoint" />
            <Array as="points">
              <mxPoint x="720" y="290" />
            </Array>
          </mxGeometry>
        </mxCell>
        <mxCell id="9PTyURIz3iImR1XXdqux-126" value="" style="shape=offPageConnector;whiteSpace=wrap;html=1;fontSize=9;fillColor=#999999;opacity=40;direction=north;size=0.3333333333333333;spacingLeft=-5;textOpacity=50;" vertex="1" parent="WIyWlLk6GJQsqaUBKTNV-1">
          <mxGeometry x="414.88" y="278.92" width="30" height="18.16" as="geometry" />
        </mxCell>
        <mxCell id="9PTyURIz3iImR1XXdqux-127" style="edgeStyle=orthogonalEdgeStyle;rounded=0;orthogonalLoop=1;jettySize=auto;html=1;exitX=0.5;exitY=1;exitDx=0;exitDy=0;entryX=0;entryY=0.5;entryDx=0;entryDy=0;labelBackgroundColor=none;fontSize=9;startArrow=none;startFill=0;endArrow=classicThin;endFill=1;opacity=40;textOpacity=50;" edge="1" source="9PTyURIz3iImR1XXdqux-126" target="9PTyURIz3iImR1XXdqux-128" parent="WIyWlLk6GJQsqaUBKTNV-1">
          <mxGeometry relative="1" as="geometry" />
        </mxCell>
        <mxCell id="9PTyURIz3iImR1XXdqux-128" value="" style="shape=sumEllipse;perimeter=ellipsePerimeter;whiteSpace=wrap;html=1;backgroundOutline=1;fontSize=9;fillColor=#999999;opacity=40;textOpacity=50;" vertex="1" parent="WIyWlLk6GJQsqaUBKTNV-1">
          <mxGeometry x="465.5" y="278.08" width="20" height="20" as="geometry" />
        </mxCell>
        <mxCell id="9PTyURIz3iImR1XXdqux-129" value="" style="shape=sumEllipse;perimeter=ellipsePerimeter;whiteSpace=wrap;html=1;backgroundOutline=1;fontSize=9;fillColor=#999999;opacity=80;" vertex="1" parent="WIyWlLk6GJQsqaUBKTNV-1">
          <mxGeometry x="463.5" y="273.08" width="20" height="20" as="geometry" />
        </mxCell>
        <mxCell id="9PTyURIz3iImR1XXdqux-138" value="" style="endArrow=none;startArrow=classicThin;html=1;rounded=0;fontSize=11;startFill=1;endFill=0;opacity=40;" edge="1" parent="WIyWlLk6GJQsqaUBKTNV-1">
          <mxGeometry width="50" height="50" relative="1" as="geometry">
            <mxPoint x="412.8799999999999" y="289.38999999999993" as="sourcePoint" />
            <mxPoint x="390" y="289" as="targetPoint" />
          </mxGeometry>
        </mxCell>
        <mxCell id="9PTyURIz3iImR1XXdqux-130" value="DAC" style="shape=offPageConnector;whiteSpace=wrap;html=1;fontSize=9;fillColor=#999999;opacity=80;direction=north;size=0.3333333333333333;spacingLeft=-5;" vertex="1" parent="WIyWlLk6GJQsqaUBKTNV-1">
          <mxGeometry x="412.88" y="273.92" width="30" height="18.16" as="geometry" />
        </mxCell>
        <mxCell id="9PTyURIz3iImR1XXdqux-131" value="" style="shape=sumEllipse;perimeter=ellipsePerimeter;whiteSpace=wrap;html=1;backgroundOutline=1;fontSize=9;fillColor=#999999;opacity=90;" vertex="1" parent="WIyWlLk6GJQsqaUBKTNV-1">
          <mxGeometry x="463.5" y="273" width="20" height="20" as="geometry" />
        </mxCell>
        <mxCell id="9PTyURIz3iImR1XXdqux-132" value="DAC" style="shape=offPageConnector;whiteSpace=wrap;html=1;fontSize=9;fillColor=#999999;opacity=90;direction=north;size=0.3333333333333333;spacingLeft=-5;" vertex="1" parent="WIyWlLk6GJQsqaUBKTNV-1">
          <mxGeometry x="412.88" y="273.84000000000003" width="30" height="18.16" as="geometry" />
        </mxCell>
        <mxCell id="9PTyURIz3iImR1XXdqux-133" value="PA" style="triangle;whiteSpace=wrap;html=1;fontSize=9;fillColor=#999999;opacity=90;spacingLeft=-9;" vertex="1" parent="WIyWlLk6GJQsqaUBKTNV-1">
          <mxGeometry x="503" y="268.08000000000004" width="30" height="30" as="geometry" />
        </mxCell>
        <mxCell id="9PTyURIz3iImR1XXdqux-134" value="" style="triangle;whiteSpace=wrap;html=1;fontSize=9;fillColor=#999999;opacity=30;spacingLeft=6;direction=west;textOpacity=50;" vertex="1" parent="WIyWlLk6GJQsqaUBKTNV-1">
          <mxGeometry x="505" y="333.99999999999994" width="30" height="30" as="geometry" />
        </mxCell>
        <mxCell id="9PTyURIz3iImR1XXdqux-135" value="" style="shape=sumEllipse;perimeter=ellipsePerimeter;whiteSpace=wrap;html=1;backgroundOutline=1;fontSize=9;fillColor=#999999;opacity=90;" vertex="1" parent="WIyWlLk6GJQsqaUBKTNV-1">
          <mxGeometry x="463.5" y="334" width="20" height="20" as="geometry" />
        </mxCell>
        <mxCell id="9PTyURIz3iImR1XXdqux-78" value="LNA" style="triangle;whiteSpace=wrap;html=1;fontSize=9;fillColor=#999999;spacingLeft=6;direction=west;opacity=90;" vertex="1" parent="WIyWlLk6GJQsqaUBKTNV-1">
          <mxGeometry x="503" y="328.99999999999994" width="30" height="30" as="geometry" />
        </mxCell>
        <mxCell id="9PTyURIz3iImR1XXdqux-141" value="" style="endArrow=classicThin;dashed=1;html=1;dashPattern=1 3;strokeWidth=2;rounded=0;labelBackgroundColor=none;fontSize=9;opacity=80;endFill=1;exitX=0.5;exitY=1;exitDx=0;exitDy=0;" edge="1" parent="WIyWlLk6GJQsqaUBKTNV-1" source="9PTyURIz3iImR1XXdqux-142">
          <mxGeometry width="50" height="50" relative="1" as="geometry">
            <mxPoint x="473.25" y="264" as="sourcePoint" />
            <mxPoint x="473.25" y="274" as="targetPoint" />
          </mxGeometry>
        </mxCell>
        <mxCell id="9PTyURIz3iImR1XXdqux-142" value="&lt;font style=&quot;font-size: 9px;&quot;&gt;Local&lt;br style=&quot;font-size: 9px;&quot;&gt;Oscillator&lt;/font&gt;" style="text;html=1;strokeColor=none;fillColor=none;align=center;verticalAlign=middle;whiteSpace=wrap;rounded=0;fontSize=5;opacity=30;" vertex="1" parent="WIyWlLk6GJQsqaUBKTNV-1">
          <mxGeometry x="453.38" y="234" width="40.25" height="20" as="geometry" />
        </mxCell>
        <mxCell id="9PTyURIz3iImR1XXdqux-143" value="" style="endArrow=classicThin;dashed=1;html=1;dashPattern=1 3;strokeWidth=2;rounded=0;labelBackgroundColor=none;fontSize=9;opacity=80;endFill=1;exitX=0.5;exitY=0;exitDx=0;exitDy=0;" edge="1" parent="WIyWlLk6GJQsqaUBKTNV-1" source="9PTyURIz3iImR1XXdqux-144">
          <mxGeometry width="50" height="50" relative="1" as="geometry">
            <mxPoint x="474.24" y="343.08" as="sourcePoint" />
            <mxPoint x="474.24" y="353.08" as="targetPoint" />
          </mxGeometry>
        </mxCell>
        <mxCell id="9PTyURIz3iImR1XXdqux-144" value="&lt;font style=&quot;font-size: 9px;&quot;&gt;Local&lt;br style=&quot;font-size: 9px;&quot;&gt;Oscillator&lt;/font&gt;" style="text;html=1;strokeColor=none;fillColor=none;align=center;verticalAlign=middle;whiteSpace=wrap;rounded=0;fontSize=5;opacity=30;" vertex="1" parent="WIyWlLk6GJQsqaUBKTNV-1">
          <mxGeometry x="454.38" y="372.72999999999996" width="40.25" height="20" as="geometry" />
        </mxCell>
        <mxCell id="9PTyURIz3iImR1XXdqux-145" value="" style="endArrow=classic;html=1;rounded=0;labelBackgroundColor=none;fontSize=9;opacity=90;" edge="1" parent="WIyWlLk6GJQsqaUBKTNV-1">
          <mxGeometry width="50" height="50" relative="1" as="geometry">
            <mxPoint x="319.76" y="278.92" as="sourcePoint" />
            <mxPoint x="390" y="278.92" as="targetPoint" />
          </mxGeometry>
        </mxCell>
        <mxCell id="9PTyURIz3iImR1XXdqux-146" value="" style="endArrow=classic;html=1;rounded=0;labelBackgroundColor=none;fontSize=9;opacity=90;" edge="1" parent="WIyWlLk6GJQsqaUBKTNV-1">
          <mxGeometry width="50" height="50" relative="1" as="geometry">
            <mxPoint x="319.75" y="287.86000000000007" as="sourcePoint" />
            <mxPoint x="389.99" y="287.86000000000007" as="targetPoint" />
          </mxGeometry>
        </mxCell>
        <mxCell id="9PTyURIz3iImR1XXdqux-147" value="" style="endArrow=classic;html=1;rounded=0;labelBackgroundColor=none;fontSize=9;opacity=90;" edge="1" parent="WIyWlLk6GJQsqaUBKTNV-1">
          <mxGeometry width="50" height="50" relative="1" as="geometry">
            <mxPoint x="389" y="339.9177777777779" as="sourcePoint" />
            <mxPoint x="318.76" y="339.9177777777779" as="targetPoint" />
          </mxGeometry>
        </mxCell>
        <mxCell id="9PTyURIz3iImR1XXdqux-148" value="" style="endArrow=classic;html=1;rounded=0;labelBackgroundColor=none;fontSize=9;opacity=90;" edge="1" parent="WIyWlLk6GJQsqaUBKTNV-1">
          <mxGeometry width="50" height="50" relative="1" as="geometry">
            <mxPoint x="388.99" y="348.8577777777779" as="sourcePoint" />
            <mxPoint x="318.75" y="348.8577777777779" as="targetPoint" />
          </mxGeometry>
        </mxCell>
        <mxCell id="9PTyURIz3iImR1XXdqux-149" value="I/Q" style="text;html=1;strokeColor=none;fillColor=none;align=center;verticalAlign=middle;whiteSpace=wrap;rounded=0;fontSize=9;opacity=30;" vertex="1" parent="WIyWlLk6GJQsqaUBKTNV-1">
          <mxGeometry x="343" y="266.92" width="20.25" height="12" as="geometry" />
        </mxCell>
        <mxCell id="9PTyURIz3iImR1XXdqux-150" value="I/Q" style="text;html=1;strokeColor=none;fillColor=none;align=center;verticalAlign=middle;whiteSpace=wrap;rounded=0;fontSize=9;opacity=30;" vertex="1" parent="WIyWlLk6GJQsqaUBKTNV-1">
          <mxGeometry x="343" y="327.92" width="20.25" height="12" as="geometry" />
        </mxCell>
        <mxCell id="9PTyURIz3iImR1XXdqux-151" value="" style="endArrow=classic;html=1;rounded=0;labelBackgroundColor=none;fontSize=9;opacity=20;" edge="1" parent="WIyWlLk6GJQsqaUBKTNV-1">
          <mxGeometry width="50" height="50" relative="1" as="geometry">
            <mxPoint x="319.76" y="284.7800000000001" as="sourcePoint" />
            <mxPoint x="390" y="284.7800000000001" as="targetPoint" />
          </mxGeometry>
        </mxCell>
        <mxCell id="9PTyURIz3iImR1XXdqux-152" value="" style="endArrow=classic;html=1;rounded=0;labelBackgroundColor=none;fontSize=9;opacity=20;" edge="1" parent="WIyWlLk6GJQsqaUBKTNV-1">
          <mxGeometry width="50" height="50" relative="1" as="geometry">
            <mxPoint x="319.75" y="293.72000000000014" as="sourcePoint" />
            <mxPoint x="389.99" y="293.72000000000014" as="targetPoint" />
          </mxGeometry>
        </mxCell>
        <mxCell id="9PTyURIz3iImR1XXdqux-153" value="" style="endArrow=classic;html=1;rounded=0;labelBackgroundColor=none;fontSize=9;opacity=20;" edge="1" parent="WIyWlLk6GJQsqaUBKTNV-1">
          <mxGeometry width="50" height="50" relative="1" as="geometry">
            <mxPoint x="388.9999999999998" y="344.9200000000001" as="sourcePoint" />
            <mxPoint x="318.75999999999976" y="344.9200000000001" as="targetPoint" />
          </mxGeometry>
        </mxCell>
        <mxCell id="9PTyURIz3iImR1XXdqux-154" value="" style="endArrow=classic;html=1;rounded=0;labelBackgroundColor=none;fontSize=9;opacity=20;" edge="1" parent="WIyWlLk6GJQsqaUBKTNV-1">
          <mxGeometry width="50" height="50" relative="1" as="geometry">
            <mxPoint x="388.9899999999998" y="353.8600000000001" as="sourcePoint" />
            <mxPoint x="318.7499999999998" y="353.8600000000001" as="targetPoint" />
          </mxGeometry>
        </mxCell>
      </root>
    </mxGraphModel>
  </diagram>
</mxfile>
